# Blender v2.79 (sub 0) OBJ File: 'grater.blend'
# www.blender.org
mtllib grater.mtl
o lp_Cube.001
v -0.364487 1.783159 1.000000
v -0.203492 1.965765 1.000000
v 0.974897 -1.850566 1.000000
v -0.848472 -2.000000 1.000000
v -0.974897 -1.850566 1.000000
v -0.571486 -1.849202 1.000000
v -0.737867 -2.000000 1.000000
v -0.141296 0.710234 1.000000
v -0.336849 0.532997 1.000000
v 0.203492 1.965765 1.000000
v 0.571486 -1.849202 1.000000
v 0.848472 -2.000000 1.000000
v 0.364487 1.783159 1.000000
v 0.737867 -2.000000 1.000000
v 0.141296 0.710234 1.000000
v 0.336849 0.532997 1.000000
v -0.364487 1.783159 -1.000000
v -0.203492 1.965765 -1.000000
v 0.974897 -1.850566 -1.000000
v -0.848472 -2.000000 -1.000000
v -0.974897 -1.850566 -1.000000
v -0.571486 -1.849202 -1.000000
v -0.737867 -2.000000 -1.000000
v -0.141296 0.710234 -1.000000
v -0.336849 0.532997 -1.000000
v 0.203492 1.965765 -1.000000
v 0.571486 -1.849202 -1.000000
v 0.848472 -2.000000 -1.000000
v 0.364487 1.783159 -1.000000
v 0.737867 -2.000000 -1.000000
v 0.141296 0.710234 -1.000000
v 0.336849 0.532997 -1.000000
vt 0.049176 0.922742
vt 0.405917 0.827247
vt 0.593025 0.831383
vt 0.049176 0.630922
vt 0.405917 0.726417
vt 0.049380 0.691299
vt 0.859005 0.615523
vt 0.773997 0.588193
vt 0.883101 0.588193
vt 0.432444 0.797979
vt 0.026810 0.887267
vt 0.026810 0.903821
vt 0.432444 0.755684
vt 0.593025 0.722280
vt 0.026811 0.666398
vt 0.026811 0.649844
vt 0.974459 0.044344
vt 0.878964 0.401085
vt 0.914081 0.044548
vt 0.682638 0.044344
vt 0.778134 0.401085
vt 0.849696 0.427611
vt 0.938983 0.021978
vt 0.955537 0.021978
vt 0.807402 0.427612
vt 0.620355 0.746376
vt 0.718114 0.021978
vt 0.701560 0.021978
vt 0.049380 0.862365
vt 0.021447 0.049344
vt 0.320781 0.600812
vt 0.021447 0.600813
vt 0.798093 0.615523
vt 0.320781 0.049344
vt 0.021447 0.020048
vt 0.320781 0.020048
vt 0.747641 0.654281
vt 0.686728 0.953615
vt 0.686728 0.654281
vt 0.650293 0.654281
vt 0.650293 0.953615
vt 0.652626 0.047749
vt 0.353293 0.599217
vt 0.353293 0.047749
vt 0.353293 0.018453
vt 0.743016 0.044548
vt 0.620355 0.807288
vt 0.784076 0.654281
vt 0.747641 0.953615
vt 0.652626 0.599217
vt 0.652626 0.018453
vt 0.784076 0.953615
vn -0.0000 0.0000 1.0000
vn 0.0000 0.0000 -1.0000
vn -0.9643 -0.2647 0.0000
vn -0.9028 0.4300 0.0000
vn -0.7634 -0.6459 0.0000
vn -0.4115 0.9114 0.0000
vn 0.4115 0.9114 0.0000
vn 0.9028 0.4300 0.0000
vn 0.9643 -0.2647 0.0000
vn 0.7634 -0.6459 0.0000
usemtl Material
s 1
f 5/1/1 9/2/1 1/3/1
f 3/4/1 16/5/1 11/6/1
f 18/7/2 29/8/2 17/9/2
f 8/10/1 1/3/1 9/2/1
f 7/11/1 5/1/1 4/12/1
f 15/13/1 16/5/1 13/14/1
f 3/4/1 14/15/1 12/16/1
f 21/17/2 25/18/2 22/19/2
f 19/20/2 32/21/2 29/8/2
f 24/22/2 25/18/2 17/9/2
f 21/17/2 23/23/2 20/24/2
f 31/25/2 29/8/2 32/21/2
f 10/26/1 1/3/1 13/14/1
f 30/27/2 19/20/2 28/28/2
f 5/1/1 6/29/1 9/2/1
f 3/4/1 13/14/1 16/5/1
f 21/30/3 1/31/4 17/32/4
f 18/7/2 26/33/2 29/8/2
f 5/34/3 20/35/5 4/36/5
f 18/37/6 10/38/7 26/39/7
f 29/40/8 10/38/7 13/41/8
f 7/11/1 6/29/1 5/1/1
f 19/42/9 13/43/8 3/44/9
f 12/45/10 19/42/9 3/44/9
f 15/13/1 1/3/1 8/10/1
f 3/4/1 11/6/1 14/15/1
f 21/17/2 17/9/2 25/18/2
f 19/20/2 27/46/2 32/21/2
f 21/17/2 22/19/2 23/23/2
f 10/26/1 2/47/1 1/3/1
f 24/22/2 29/8/2 31/25/2
f 30/27/2 27/46/2 19/20/2
f 17/48/4 2/49/6 18/37/6
f 21/30/3 5/34/3 1/31/4
f 5/34/3 21/30/3 20/35/5
f 18/37/6 2/49/6 10/38/7
f 29/40/8 26/39/7 10/38/7
f 19/42/9 29/50/8 13/43/8
f 12/45/10 28/51/10 19/42/9
f 15/13/1 13/14/1 1/3/1
f 24/22/2 17/9/2 29/8/2
f 17/48/4 1/52/4 2/49/6
